<?xml version="1.0"?>
<svg xmlns="http://www.w3.org/2000/svg" height="512px" viewBox="0 0 496 496" width="512px"><path d="m488 48h-24v-40c0-4.414062-3.574219-8-8-8h-128c-4.425781 0-8 3.585938-8 8v40h-24c-4.425781 0-8 3.585938-8 8v48c0 4.414062 3.574219 8 8 8h23.511719c-2.6875 24.503906-17.558594 45.703125-39.511719 56.519531v-16.519531c0-4.414062-3.574219-8-8-8h-48c-4.425781 0-8 3.585938-8 8v26.40625c-102.753906 15.234375-180.023438 101.714844-183.816406 205.59375h-24.183594c-4.425781 0-8 3.585938-8 8v48c0 4.414062 3.574219 8 8 8h24v40c0 4.414062 3.574219 8 8 8h128c4.425781 0 8-3.585938 8-8v-40h24c4.425781 0 8-3.585938 8-8v-48c0-4.414062-3.574219-8-8-8h-23.511719c2.6875-24.503906 17.558594-45.703125 39.511719-56.519531v16.519531c0 4.414062 3.574219 8 8 8h48c4.425781 0 8-3.585938 8-8v-26.40625c102.753906-15.234375 180.023438-101.714844 183.816406-205.59375h24.183594c4.425781 0 8-3.585938 8-8v-48c0-4.414062-3.574219-8-8-8zm-152-32h112v32h-112zm-176 464h-112v-32h112zm32-48h-176v-32h176zm-31.617188-48h-112.007812c3.769531-95.089844 73.90625-174.175781 167.625-189.230469v115.269531c-31.238281 12.144532-52.632812 40.679688-55.617188 73.960938zm103.617188-48h-32v-176h32zm16-34.769531v-115.269531c31.238281-12.144532 52.632812-40.679688 55.617188-73.960938h112.015624c-3.777343 95.089844-73.914062 174.175781-167.632812 189.230469zm200-205.230469h-176v-32h176zm0 0" fill="#035e7b"/><path d="m438.910156 307.96875c-2.871094-4.914062-10.949218-4.914062-13.832031 0l-45.09375 77.320312c-7.832031 13.4375-11.984375 28.773438-11.984375 44.367188 0 35.542969 27.832031 65.296875 62.039062 66.320312.664063.015626 1.328126.023438 1.992188.023438 16.738281 0 32.488281-6.367188 44.527344-18.0625 12.546875-12.160156 19.441406-28.472656 19.441406-45.9375v-2.367188c0-15.570312-4.152344-30.90625-11.984375-44.34375zm41.089844 124.03125c0 13.097656-5.175781 25.328125-14.574219 34.457031-9.394531 9.109375-22.136719 13.917969-34.898437 13.519531-25.664063-.769531-46.527344-23.34375-46.527344-50.34375 0-12.738281 3.390625-25.289062 9.816406-36.28125l38.183594-65.472656 38.191406 65.472656c6.417969 10.992188 9.808594 23.535157 9.808594 36.28125zm0 0" fill="#035e7b"/><path d="m432 448v16c17.648438 0 32-14.351562 32-32h-16c0 8.824219-7.175781 16-16 16zm0 0" fill="#035e7b"/><path d="m62.039062 191.96875c.664063.023438 1.328126.03125 1.992188.03125 16.738281 0 32.488281-6.367188 44.527344-18.0625 12.546875-12.160156 19.441406-28.472656 19.441406-45.9375v-2.367188c0-15.570312-4.152344-30.90625-11.984375-44.34375l-45.105469-77.320312c-2.871094-4.914062-10.949218-4.914062-13.832031 0l-45.09375 77.320312c-7.832031 13.4375-11.984375 28.765626-11.984375 44.367188 0 35.535156 27.832031 65.289062 62.039062 66.3125zm-36.222656-102.617188 38.183594-65.472656 38.191406 65.472656c6.417969 10.992188 9.808594 23.535157 9.808594 36.28125v2.367188c0 13.097656-5.175781 25.328125-14.574219 34.457031-9.394531 9.109375-22.113281 13.886719-34.898437 13.519531-25.664063-.769531-46.527344-23.34375-46.527344-50.34375 0-12.746093 3.390625-25.289062 9.816406-36.28125zm0 0" fill="#035e7b"/><path d="m96 128h-16c0 8.824219-7.175781 16-16 16v16c17.648438 0 32-14.351562 32-32zm0 0" fill="#035e7b"/></svg>
