<?xml version="1.0" standalone="no"?>
<!DOCTYPE svg PUBLIC "-//W3C//DTD SVG 20010904//EN"
 "http://www.w3.org/TR/2001/REC-SVG-20010904/DTD/svg10.dtd">
<svg version="1.0" xmlns="http://www.w3.org/2000/svg"
 width="500.000000pt" height="500.000000pt" viewBox="0 0 500.000000 500.000000"
 preserveAspectRatio="xMidYMid meet">
<metadata>
Created by potrace 1.11, written by Peter Selinger 2001-2013
</metadata>
<g transform="translate(0.000000,500.000000) scale(0.100000,-0.100000)"
fill="#000000" stroke="none">
<path d="M0 2500 l0 -2500 2500 0 2500 0 0 2500 0 2500 -2500 0 -2500 0 0
-2500z m3970 -714 l0 -1249 -1067 6 c-586 4 -1248 7 -1470 7 l-403 0 0 1237 0
1238 737 737 738 738 732 -732 733 -733 0 -1249z"/>
<path d="M1902 3507 l-602 -602 0 -1043 0 -1042 1190 0 c655 0 1193 0 1198 0
4 0 8 474 10 1052 l2 1053 -592 592 c-326 326 -595 593 -598 593 -3 0 -276
-271 -608 -603z m1338 -1632 l0 -745 -745 0 -745 0 0 745 0 745 745 0 745 0 0
-745z"/>
<path d="M2022 1873 l3 -468 468 -3 467 -2 0 470 0 470 -470 0 -470 0 2 -467z"/>
</g>
</svg>
