<svg version="1" xmlns="http://www.w3.org/2000/svg" width="132" height="132" viewBox="0 0 99.000000 99.000000"><path d="M41 2.7C39.9 4 38.6 5 38 5c-.5 0-1.2 1.1-1.6 2.4-.3 1.3-1.4 2.6-2.5 2.9-1.1.3-1.9.9-1.8 1.4.4 2.2-.3 3.3-2.1 3.3-1.6 0-1.9-.5-1.4-2.9 1-5.1-4.6-5.3-6.4-.2-.6 1.5-2.4 4.4-4.1 6.3-1.7 1.9-2.8 3.7-2.6 4 .3.3-.4 2.5-1.5 5-3.3 7.6-4.3 16.7-2.7 25 .9 4.7 4.5 13.9 6.2 15.8.7.8 1.9 3.4 2.5 5.7 1.4 4.5 2.6 5.5 5.9 4.6C27.3 78 28 77 28 75.4c0-2.9 1.1-3.1 3.3-.6 1.9 2 2.3 6.7.7 7.7-1.9 1.2-1 4.1 1.8 5.6 3.8 2.2 5.9 1.4 7.3-2.9.7-2.2 1.4-3.1 1.7-2.2.3.8 1.2 2.4 2.1 3.4 1.2 1.4 1.3 2 .4 2.3-.7.3-1.3 1.1-1.3 1.9 0 .8-.4 1.4-1 1.4-.5 0-1 .4-1 1 0 .5.6 1 1.4 1 .8 0 2.3 1.1 3.4 2.5l1.9 2.4 2.3-2.4c1.3-1.4 2.9-2.5 3.7-2.5.7 0 1.3-.5 1.3-1 0-.6-.3-1-.8-1-.4 0-1.3-.9-2-2.1-1.1-1.8-1.1-2.4.2-3.8.9-1 1.6-2.4 1.6-3.1 0-1.3 1.4-.5 1.5.8.4 5.3 4.1 6.9 8.4 3.8 2.8-2.1 2.9-2.5 1.6-4.2-1.9-2.5-1.9-6.9.1-8.8 2.2-2.3 3.4-2 3.4.8 0 2.6 1.8 3.7 4.8 2.9 1.3-.3 2.4-2 3.2-4.9.7-2.5 2-5 2.9-5.7.9-.7 1.7-1.9 1.8-2.7.1-.8 1.2-4.2 2.4-7.5 3-8 3-18.7 0-27-1.2-3.3-2.3-6.7-2.4-7.5-.1-.8-1.2-2.6-2.5-4-1.2-1.4-3.1-4.4-4.2-6.7-2-4.3-3.3-5-5.9-3.4-.9.6-1.1 1.8-.7 3.5.6 2.3.3 2.6-1.8 2.6-1.9 0-2.3-.4-1.9-2.1.4-1.4 0-2.2-1.4-2.5-1-.3-2.4-1.9-3.1-3.6-.8-2.1-1.6-2.9-2.7-2.5-.9.4-1.5.1-1.5-.8 0-2.3-3.6-3.6-9-3.4-3.8.2-5.4.8-7 2.6z"/></svg>